# xmcd
#
# Track frame offsets:
#	150
#	11360
#	25867
#	40012
#	51517
#	64442
#	76657
#	89542
#	101632
#	114675
#	125025
#	139870
#	153970
#	164992
#	177880
#	190335
#	202625
#	214507
#	226380
#	237307
#	250030
#	263190
#	277702
#	289895
#
# Disc length: 3984 seconds
#
# Revision: 4
# Processed by: cddbd v1.5.2PL0 Copyright (c) Steve Scherf et al.
# Submitted via: EasyCDDAExtractor 11.0.3.2
#
DISCID=520f8e18
DTITLE=Bill Monroe - The Music Of Bill Monroe From 1936-1994 [CD1]
DYEAR=1994
DGENRE=country
TTITLE0=The Long Journey Home
TTITLE1=What Would You Give In Exchange For Your Soul
TTITLE2=Muleskinner Blues
TTITLE3=Cryin' Holy Unto My Lord
TTITLE4=Back Up And Push
TTITLE5=Goodbye Old Pal
TTITLE6=Heavy Traffic Ahead
TTITLE7=Wicked Path Of Sin
TTITLE8=It's Mighty Dark To Travel
TTITLE9=Bluegrass Breakdown
TTITLE10=Can't You Hear Me Callin'
TTITLE11=My Little Georgia Rose
TTITLE12=I'm On My Way To The Old Home
TTITLE13=I'm Blue, I'm Lonesome
TTITLE14=Uncle Pen
TTITLE15=Lord Protect My Soul
TTITLE16=Raw Hide
TTITLE17=Brakeman's Blues
TTITLE18=Sugar Coated Love
TTITLE19=Christmas Time's A Coming
TTITLE20=The First Whippoorwill
TTITLE21=In The Pines
TTITLE22=Footprints In The Snow
TTITLE23=Walking In Jerusalem
EXTD=
EXTT0=
EXTT1=
EXTT2=
EXTT3=
EXTT4=
EXTT5=
EXTT6=
EXTT7=
EXTT8=
EXTT9=
EXTT10=
EXTT11=
EXTT12=
EXTT13=
EXTT14=
EXTT15=
EXTT16=
EXTT17=
EXTT18=
EXTT19=
EXTT20=
EXTT21=
EXTT22=
EXTT23=
PLAYORDER=
